<?xml version="1.0" encoding="UTF-8"?>
<!DOCTYPE svg PUBLIC "-//W3C//DTD SVG 1.1//EN" "http://www.w3.org/Graphics/SVG/1.1/DTD/svg11.dtd">
<svg xmlns="http://www.w3.org/2000/svg" version="1.1" width="3485px" height="713px" style="shape-rendering:geometricPrecision; text-rendering:geometricPrecision; image-rendering:optimizeQuality; fill-rule:evenodd; clip-rule:evenodd" xmlns:xlink="http://www.w3.org/1999/xlink">
<g><path style="opacity:0.999" fill="#4ebb73" d="M 1947.5,32.5 C 2383.5,32.3333 2819.5,32.5 3255.5,33C 3324.3,41.1312 3378.13,73.6312 3417,130.5C 3436.28,160.333 3447.61,193 3451,228.5C 3451.67,307.167 3451.67,385.833 3451,464.5C 3440.15,548.662 3396.31,608.495 3319.5,644C 3298.96,652.468 3277.63,657.801 3255.5,660C 2819.5,660.667 2383.5,660.667 1947.5,660C 1858.99,648.143 1797.82,600.976 1764,518.5C 1757.79,500.991 1753.79,482.991 1752,464.5C 1751.33,385.833 1751.33,307.167 1752,228.5C 1761.38,151.864 1799.54,94.6971 1866.5,57C 1892.16,44.007 1919.16,35.8404 1947.5,32.5 Z"/></g>
<g><path style="opacity:0.982" fill="#000000" d="M 625.5,197.5 C 689.628,192.81 738.128,217.81 771,272.5C 794.692,317.896 796.692,364.229 777,411.5C 744.894,473.648 693.728,502.148 623.5,497C 562.408,486.249 521.908,451.416 502,392.5C 484.801,326.439 501.968,271.272 553.5,227C 575.007,211 599.007,201.166 625.5,197.5 Z M 638.5,258.5 C 675.905,258.739 701.072,276.406 714,311.5C 725.554,347.509 720.221,380.842 698,411.5C 673.633,436.175 645.133,442.342 612.5,430C 586.9,416.036 571.733,394.536 567,365.5C 561.676,331.605 570.509,302.105 593.5,277C 606.524,265.83 621.524,259.664 638.5,258.5 Z"/></g>
<g><path style="opacity:0.982" fill="#000000" d="M 1488.5,197.5 C 1522.02,195.038 1554.02,200.872 1584.5,215C 1591.83,218.667 1599.17,222.333 1606.5,226C 1608.97,227.216 1610.97,228.883 1612.5,231C 1602.96,249.913 1592.8,268.413 1582,286.5C 1558.48,269.936 1532.31,260.603 1503.5,258.5C 1493.45,258.512 1484.11,261.012 1475.5,266C 1466,275.494 1465.17,285.66 1473,296.5C 1479.86,301.513 1487.36,305.347 1495.5,308C 1515.62,313.595 1535.62,319.595 1555.5,326C 1615.09,345.679 1634.92,385.512 1615,445.5C 1604.34,467.825 1587.17,482.658 1563.5,490C 1528.7,499.278 1493.7,499.945 1458.5,492C 1431.53,485.841 1406.53,475.341 1383.5,460.5C 1392.97,440.221 1402.97,420.221 1413.5,400.5C 1442.86,420.788 1475.36,432.455 1511,435.5C 1521.61,435.781 1531.44,433.281 1540.5,428C 1549.94,417.729 1549.61,407.729 1539.5,398C 1533.11,394.139 1526.45,390.806 1519.5,388C 1501.21,382.178 1482.88,376.512 1464.5,371C 1444.78,364.896 1427.28,355.063 1412,341.5C 1403.74,331.648 1398.74,320.314 1397,307.5C 1391.32,256.335 1412.49,221.835 1460.5,204C 1469.82,201.168 1479.15,199.001 1488.5,197.5 Z"/></g>
<g><path style="opacity:1" fill="#fefefe" d="M 2874.5,198.5 C 2915.09,194.225 2951.42,204.391 2983.5,229C 2994.98,238.677 3004.32,250.01 3011.5,263C 2993.83,275.5 2976.17,288 2958.5,300.5C 2948.68,278.186 2931.68,265.019 2907.5,261C 2860.68,255.314 2830.68,275.147 2817.5,320.5C 2810.17,351.841 2815.33,380.841 2833,407.5C 2861.67,440.498 2895.51,446.664 2934.5,426C 2945.85,418.781 2954.02,408.947 2959,396.5C 2977.33,407.5 2995.67,418.5 3014,429.5C 3014.67,430.5 3014.67,431.5 3014,432.5C 3000.88,456.949 2981.38,474.449 2955.5,485C 2882.62,513.826 2822.12,497.659 2774,436.5C 2739.64,385.964 2735.3,332.964 2761,277.5C 2785.64,232.258 2823.48,205.925 2874.5,198.5 Z"/></g>
<g><path style="opacity:0.981" fill="#000000" d="M 53.5,199.5 C 78.8333,199.5 104.167,199.5 129.5,199.5C 153.495,271.318 177.995,342.985 203,414.5C 212.402,388.795 221.902,363.128 231.5,337.5C 215.124,291.535 198.457,245.702 181.5,200C 203.164,199.5 224.831,199.333 246.5,199.5C 256.226,230.512 266.059,261.512 276,292.5C 286.471,261.586 296.638,230.586 306.5,199.5C 328.169,199.333 349.836,199.5 371.5,200C 354.407,245.778 337.407,291.611 320.5,337.5C 330.628,363.049 340.461,388.716 350,414.5C 374.401,343.129 398.901,271.796 423.5,200.5C 448.827,199.334 474.16,199.167 499.5,200C 460.833,298.667 422.167,397.333 383.5,496C 363.492,496.833 343.492,496.666 323.5,495.5C 307.943,457.385 292.109,419.385 276,381.5C 260.776,419.614 245.276,457.614 229.5,495.5C 209.167,496.833 188.833,496.833 168.5,495.5C 130.154,396.812 91.8202,298.145 53.5,199.5 Z"/></g>
<g><path style="opacity:0.984" fill="#000000" d="M 828.5,199.5 C 877.834,199.333 927.168,199.5 976.5,200C 1020.71,210.541 1047.87,238.041 1058,282.5C 1063.54,321.227 1051.71,353.394 1022.5,379C 1019,381.583 1015.34,383.916 1011.5,386C 1033.29,422.417 1054.96,458.917 1076.5,495.5C 1050.83,496.833 1025.17,496.833 999.5,495.5C 980.959,464.251 962.292,433.084 943.5,402C 928.17,401.5 912.837,401.333 897.5,401.5C 897.5,433.167 897.5,464.833 897.5,496.5C 874.5,496.5 851.5,496.5 828.5,496.5C 828.5,397.5 828.5,298.5 828.5,199.5 Z M 897.5,260.5 C 920.566,260.031 943.566,260.531 966.5,262C 981.622,270.309 988.955,283.142 988.5,300.5C 989.156,316.689 982.823,329.189 969.5,338C 945.565,339.47 921.565,339.97 897.5,339.5C 897.5,313.167 897.5,286.833 897.5,260.5 Z"/></g>
<g><path style="opacity:0.985" fill="#000000" d="M 1107.5,199.5 C 1151.5,199.333 1195.5,199.5 1239.5,200C 1311.91,209.406 1353.74,250.24 1365,322.5C 1370.03,358.975 1364.36,393.642 1348,426.5C 1323.18,467.586 1286.68,490.42 1238.5,495C 1194.85,496.38 1151.18,496.88 1107.5,496.5C 1107.5,397.5 1107.5,298.5 1107.5,199.5 Z M 1176.5,260.5 C 1194.84,260.333 1213.17,260.5 1231.5,261C 1267.15,267.982 1287.98,289.482 1294,325.5C 1297.78,348.18 1295.45,370.18 1287,391.5C 1275.78,415.192 1257.28,429.359 1231.5,434C 1213.17,434.5 1194.84,434.667 1176.5,434.5C 1176.5,376.5 1176.5,318.5 1176.5,260.5 Z"/></g>
<g><path style="opacity:1" fill="#fefefe" d="M 2132.5,496.5 C 2132.67,437.832 2132.5,379.166 2132,320.5C 2131.49,321.527 2130.99,322.527 2130.5,323.5C 2109.85,364.807 2089.18,406.14 2068.5,447.5C 2055.83,448.833 2043.17,448.833 2030.5,447.5C 2009.82,405.478 1989.16,363.478 1968.5,321.5C 1968.44,320.957 1968.11,320.624 1967.5,320.5C 1966.5,379.163 1966.17,437.83 1966.5,496.5C 1943.83,496.5 1921.17,496.5 1898.5,496.5C 1898.5,397.833 1898.5,299.167 1898.5,200.5C 1923.74,200.172 1948.91,200.505 1974,201.5C 1999.08,252.655 2024.41,303.655 2050,354.5C 2075.06,303.376 2100.4,252.376 2126,201.5C 2150.76,200.506 2175.59,200.172 2200.5,200.5C 2200.5,299.167 2200.5,397.833 2200.5,496.5C 2177.83,496.5 2155.17,496.5 2132.5,496.5 Z"/></g>
<g><path style="opacity:1" fill="#fefefe" d="M 2331.5,200.5 C 2356.41,200.172 2381.24,200.506 2406,201.5C 2440.34,299.682 2474.17,398.015 2507.5,496.5C 2484.17,496.5 2460.83,496.5 2437.5,496.5C 2431.17,474.5 2424.83,452.5 2418.5,430.5C 2385.83,430.333 2353.16,430.5 2320.5,431C 2313.74,452.448 2307.07,473.948 2300.5,495.5C 2277.17,496.833 2253.83,496.833 2230.5,495.5C 2264.77,397.355 2298.44,299.022 2331.5,200.5 Z"/></g>
<g><path style="opacity:1" fill="#fefefe" d="M 2485.5,200.5 C 2568.5,200.5 2651.5,200.5 2734.5,200.5C 2734.5,220.5 2734.5,240.5 2734.5,260.5C 2704.5,260.5 2674.5,260.5 2644.5,260.5C 2644.5,339.167 2644.5,417.833 2644.5,496.5C 2621.5,496.5 2598.5,496.5 2575.5,496.5C 2575.5,417.833 2575.5,339.167 2575.5,260.5C 2545.5,260.5 2515.5,260.5 2485.5,260.5C 2485.5,240.5 2485.5,220.5 2485.5,200.5 Z"/></g>
<g><path style="opacity:1" fill="#fefefe" d="M 3048.5,200.5 C 3071.5,200.5 3094.5,200.5 3117.5,200.5C 3117.5,238.833 3117.5,277.167 3117.5,315.5C 3156.83,315.5 3196.17,315.5 3235.5,315.5C 3235.5,277.167 3235.5,238.833 3235.5,200.5C 3258.17,200.5 3280.83,200.5 3303.5,200.5C 3303.5,299.167 3303.5,397.833 3303.5,496.5C 3280.83,496.5 3258.17,496.5 3235.5,496.5C 3235.5,456.167 3235.5,415.833 3235.5,375.5C 3196.17,375.5 3156.83,375.5 3117.5,375.5C 3117.5,415.833 3117.5,456.167 3117.5,496.5C 3094.5,496.5 3071.5,496.5 3048.5,496.5C 3048.5,397.833 3048.5,299.167 3048.5,200.5 Z"/></g>
<g><path style="opacity:1" fill="#50bb74" d="M 2368.5,271.5 C 2370.84,273.965 2372.34,276.965 2373,280.5C 2383.33,314.807 2393.49,349.14 2403.5,383.5C 2380.83,383.5 2358.17,383.5 2335.5,383.5C 2346.09,346.055 2357.09,308.722 2368.5,271.5 Z"/></g>
<g><path style="opacity:1" fill="#e4f2e8" d="M 1968.5,321.5 C 1967.83,379.833 1967.17,438.167 1966.5,496.5C 1966.17,437.83 1966.5,379.163 1967.5,320.5C 1968.11,320.624 1968.44,320.957 1968.5,321.5 Z"/></g>
<g><path style="opacity:1" fill="#6dc489" d="M 2132.5,496.5 C 2131.83,438.833 2131.17,381.167 2130.5,323.5C 2130.99,322.527 2131.49,321.527 2132,320.5C 2132.5,379.166 2132.67,437.832 2132.5,496.5 Z"/></g>
</svg>
